<?xml version="1.0" encoding="utf-8"?>
<!-- Generator: Adobe Illustrator 24.3.0, SVG Export Plug-In . SVG Version: 6.00 Build 0)  -->
<svg version="1.1" id="Layer_1" xmlns="http://www.w3.org/2000/svg" xmlns:xlink="http://www.w3.org/1999/xlink" x="0px" y="0px"
	 viewBox="0 0 18.5 14.3" style="enable-background:new 0 0 18.5 14.3;" xml:space="preserve">
<style type="text/css">
	.st0{fill:#E30A5E;}
</style>
<g>
	<path class="st0" d="M8.2,11c0,0.8-0.3,1.5-1,2.2c-0.7,0.6-1.4,0.9-2.3,0.9c-1.4,0-2.5-0.5-3.3-1.4s-1.1-2.2-1.1-3.9
		c0-1.5,0.7-3.1,2-4.7s2.9-2.7,4.7-3.6L8,1.9C6.5,2.6,5.4,3.5,4.6,4.4C3.7,5.3,3.3,6.5,3.1,7.8h1.1c0.8,0,1.4,0.1,1.9,0.3
		C6.6,8.3,7,8.5,7.3,8.8s0.5,0.6,0.6,1C8.1,10.2,8.2,10.6,8.2,11z M17.7,11c0,0.8-0.3,1.5-1,2.2s-1.4,0.9-2.3,0.9
		c-1.4,0-2.5-0.5-3.3-1.4S10,10.5,10,8.8c0-1.5,0.7-3.1,2-4.7s2.9-2.7,4.7-3.6l0.8,1.4C16,2.6,14.9,3.5,14,4.4s-1.3,2.1-1.4,3.4h1.1
		c0.8,0,1.4,0.1,1.9,0.3c0.5,0.2,0.9,0.4,1.2,0.7c0.3,0.3,0.5,0.6,0.6,1C17.6,10.2,17.7,10.6,17.7,11z"/>
</g>
</svg>
